<?xml version="1.0" standalone="no"?>
<!DOCTYPE svg PUBLIC "-//W3C//DTD SVG 20010904//EN"
 "http://www.w3.org/TR/2001/REC-SVG-20010904/DTD/svg10.dtd">
<svg version="1.0" xmlns="http://www.w3.org/2000/svg"
 width="201.000000pt" height="56.000000pt" viewBox="0 0 201.000000 56.000000"
 preserveAspectRatio="xMidYMid meet">

<g transform="translate(0.000000,56.000000) scale(0.100000,-0.100000)"
fill="#000000" stroke="none">
<path d="M64 531 c-55 -33 -64 -69 -64 -253 0 -140 3 -168 19 -198 35 -66 57
-72 263 -70 201 1 212 4 248 63 15 24 20 50 20 105 0 39 -4 72 -9 72 -4 0 -14
-20 -21 -45 -15 -55 -77 -128 -134 -158 -64 -34 -165 -31 -234 7 -87 49 -134
128 -134 228 0 114 80 220 187 247 25 6 45 13 45 16 0 3 -35 5 -77 5 -59 0
-86 -5 -109 -19z"/>
<path d="M335 536 c58 -18 96 -40 126 -73 33 -34 69 -105 69 -133 0 -11 5 -20
10 -20 17 0 12 128 -7 167 -26 56 -64 73 -158 72 -79 0 -80 0 -40 -13z"/>
<path d="M192 439 c-141 -70 -115 -288 40 -330 74 -19 149 11 195 80 27 40 31
126 9 169 -48 92 -152 126 -244 81z m128 -9 c74 -20 131 -117 111 -188 -52
-180 -311 -152 -311 34 0 65 29 111 90 142 50 25 60 26 110 12z"/>
<path d="M263 332 c-9 -46 -8 -72 1 -113 13 -53 13 -54 22 -24 11 37 9 142 -3
173 -8 21 -11 16 -20 -36z m27 -52 c0 -5 -4 -10 -10 -10 -5 0 -10 5 -10 10 0
6 5 10 10 10 6 0 10 -4 10 -10z"/>
<path d="M702 445 c-42 -30 -46 -132 -7 -175 14 -16 31 -20 82 -20 35 0 63 4
63 10 0 6 -22 10 -50 10 -65 0 -90 23 -90 83 0 66 20 87 86 87 30 0 54 5 54
10 0 16 -113 12 -138 -5z"/>
<path d="M882 444 c-34 -23 -55 -71 -48 -108 16 -86 128 -118 187 -55 l29 31
0 -31 c0 -21 5 -31 15 -31 12 0 15 16 15 82 0 45 4 78 8 73 5 -6 22 -43 38
-82 40 -100 59 -100 98 2 16 42 33 78 37 81 5 3 9 -31 9 -75 l0 -81 30 0 c27
0 30 3 30 34 0 34 0 34 51 38 54 3 57 -1 34 -54 -5 -13 -2 -18 9 -18 10 0 22
13 27 30 10 28 14 30 64 30 49 0 53 -2 65 -30 l12 -30 98 0 c108 0 123 8 123
61 0 41 -15 53 -80 59 -63 6 -87 26 -64 54 10 11 31 16 72 16 33 0 59 4 59 10
0 6 -29 10 -68 10 -77 0 -102 -16 -102 -62 0 -36 21 -50 88 -57 55 -6 57 -7
57 -36 l0 -30 -78 0 -78 0 -41 93 c-25 55 -47 92 -56 92 -8 0 -12 -6 -9 -12 3
-7 14 -36 25 -65 l21 -51 -52 -4 c-29 -2 -54 -3 -56 -1 -2 2 3 11 12 21 22 25
22 75 -1 95 -15 13 -39 17 -116 17 l-97 0 -25 -57 c-55 -130 -45 -126 -84 -29
-32 79 -37 86 -62 86 -25 0 -28 -4 -28 -32 l0 -32 -33 32 c-26 25 -42 32 -73
32 -22 0 -50 -7 -62 -16z m97 -14 c10 -5 24 -23 31 -39 35 -86 -59 -161 -120
-96 -63 67 10 178 89 135z m456 -14 c13 -19 14 -29 5 -45 -9 -17 -20 -21 -60
-21 l-50 0 0 45 0 45 45 0 c36 0 48 -5 60 -24z"/>
<path d="M1830 440 c-47 -47 -17 -89 68 -97 49 -5 63 -10 68 -25 10 -34 -13
-48 -82 -48 -36 0 -64 -4 -64 -10 0 -6 33 -10 80 -10 68 0 81 3 90 19 29 56
-5 101 -79 101 -57 0 -79 17 -61 49 9 18 20 21 70 21 33 0 60 4 60 10 0 6 -28
10 -65 10 -52 0 -69 -4 -85 -20z"/>
</g>
</svg>
