<?xml version="1.0" standalone="no"?>
<!DOCTYPE svg PUBLIC "-//W3C//DTD SVG 20010904//EN"
 "http://www.w3.org/TR/2001/REC-SVG-20010904/DTD/svg10.dtd">
<svg version="1.0" xmlns="http://www.w3.org/2000/svg"
 width="203.000000pt" height="119.000000pt" viewBox="0 0 203.000000 119.000000"
 preserveAspectRatio="xMidYMid meet">

<g transform="translate(0.000000,119.000000) scale(0.100000,-0.100000)"
fill="#000000" stroke="none">
<path d="M470 780 l0 -410 545 0 545 0 0 410 0 410 -545 0 -545 0 0 -410z
m1010 0 l0 -340 -465 0 -465 0 0 340 0 340 465 0 465 0 0 -340z"/>
<path d="M950 970 l0 -50 115 0 c132 0 164 -11 192 -63 21 -41 21 -113 0 -154
-23 -43 -64 -63 -132 -63 l-55 0 0 -51 0 -52 75 6 c117 10 185 49 227 131 30
57 30 155 0 212 -51 99 -132 134 -309 134 l-113 0 0 -50z"/>
<path d="M1664 233 c-35 -7 -56 -37 -52 -75 3 -30 8 -35 58 -55 30 -12 55 -28
55 -35 0 -19 -49 -22 -83 -4 -27 14 -31 14 -36 0 -3 -9 -6 -20 -6 -25 0 -13
63 -39 95 -39 39 0 84 27 91 55 9 36 -14 65 -66 84 -26 9 -46 24 -48 34 -4 20
22 23 64 7 28 -11 43 -1 44 27 0 17 -75 34 -116 26z"/>
<path d="M690 115 l0 -115 54 0 c63 0 101 12 133 42 46 43 38 127 -15 168 -19
16 -40 20 -98 20 l-74 0 0 -115z m134 54 c50 -40 21 -119 -44 -119 l-30 0 0
70 c0 67 1 70 24 70 13 0 35 -9 50 -21z"/>
<path d="M930 115 l0 -115 90 0 c89 0 90 0 90 25 0 24 -3 25 -60 25 -57 0 -60
1 -60 25 0 24 3 25 55 25 48 0 55 2 55 20 0 18 -7 20 -55 20 -52 0 -55 1 -55
25 0 24 3 25 60 25 53 0 60 2 60 20 0 19 -7 20 -90 20 l-90 0 0 -115z"/>
<path d="M1142 118 l3 -113 50 -3 c63 -4 110 5 130 24 22 23 19 70 -7 88 -19
14 -19 16 -5 22 25 9 23 70 -2 84 -11 5 -54 10 -96 10 l-76 0 3 -112z m131 58
c8 -20 -13 -36 -45 -36 -23 0 -28 4 -28 25 0 22 4 25 34 25 20 0 36 -6 39 -14z
m2 -101 c0 -16 -8 -21 -37 -23 -35 -3 -38 -1 -38 23 0 24 3 26 38 23 29 -2 37
-7 37 -23z"/>
<path d="M1370 142 c0 -81 2 -90 24 -111 15 -14 42 -25 68 -28 37 -4 49 -1 76
22 32 26 32 28 32 116 0 88 0 89 -25 89 -24 0 -25 -2 -25 -74 0 -79 -13 -106
-50 -106 -37 0 -50 27 -50 106 0 72 -1 74 -25 74 -25 0 -25 -1 -25 -88z"/>
<path d="M1810 115 l0 -115 30 0 c27 0 30 3 30 34 0 18 7 39 16 47 17 14 13
17 55 -48 17 -27 27 -33 55 -33 l35 0 -39 57 c-21 32 -42 64 -46 70 -4 8 10
31 35 58 l42 45 -36 0 c-29 0 -41 -8 -76 -47 l-40 -48 -1 48 c0 46 -1 47 -30
47 l-30 0 0 -115z"/>
</g>
</svg>
